<svg xmlns="http://www.w3.org/2000/svg" fill="none" viewBox="0 0 239 70" height="70" width="239"><g clip-path="url(#clip0_189_2)"><path fill="url(#paint0_linear_189_2)" d="M20.932 11.2467C18.3904 12.7885 16.0351 14.6179 13.9127 16.6986C11.8301 18.6941 10.0148 20.9506 8.51219 23.4119C7.76736 24.6325 7.11688 25.9081 6.5664 27.2277C4.85918 31.2129 4.21288 35.5716 4.69029 39.8802C5.0045 42.7931 5.7169 45.6493 6.80761 48.3688C7.87958 51.1357 9.23774 53.7832 10.86 56.2683C12.5275 58.7556 14.3708 61.1208 16.3758 63.3457C18.3752 65.5923 20.4684 67.7694 22.6607 69.8447C20.3183 67.9407 18.0589 65.9217 15.9067 63.7875C13.7226 61.6659 11.6931 59.3912 9.83351 56.9806C6.2019 52.0749 3.38238 46.3846 2.48185 40.1668C1.52771 33.9838 2.68018 27.3134 6.08129 21.9176C6.91629 20.5717 7.8755 19.3067 8.94638 18.1393C9.99754 16.9659 11.1649 15.9019 12.4306 14.9634C14.9553 13.1051 17.8525 11.6617 20.932 11.2467Z"/><path fill="url(#paint1_linear_189_2)" d="M0 28.0792C0.16885 24.7936 1.26503 21.5588 2.92137 18.6641C4.59422 15.7397 6.83706 13.1802 9.51722 11.1369C10.1926 10.6361 10.9189 10.2104 11.6185 9.74444C11.9776 9.52754 12.3099 9.26779 12.6905 9.0857L13.8189 8.5314C14.5827 8.19132 15.3144 7.76555 16.1024 7.49777C16.8903 7.23 17.6837 6.96222 18.477 6.70783C19.2625 6.44043 20.0695 6.24065 20.8891 6.11068L23.3173 5.65814C24.9603 5.49211 26.6112 5.41713 28.2408 5.37161C26.6488 5.80809 25.0541 6.11336 23.4889 6.50967L21.1893 7.23L20.0368 7.57811C19.6574 7.70998 19.2852 7.86193 18.9219 8.03333C18.1848 8.34663 17.4478 8.6519 16.7081 8.9411C15.9684 9.2303 15.2983 9.67481 14.5908 10.031L13.5375 10.5665C13.1939 10.7619 12.8611 10.9755 12.5404 11.2065C11.8918 11.6564 11.2138 12.0688 10.5866 12.5454L8.75606 14.045C8.15571 14.5537 7.64648 15.1616 7.07024 15.7025C5.97615 16.8462 4.98011 18.0796 4.09259 19.3898C2.26907 22.0473 0.887083 24.9815 0 28.0792Z"/><path fill="url(#paint2_linear_189_2)" d="M45.3723 3.69264C45.2008 3.60428 44.9516 3.48913 44.7237 3.39541C44.4959 3.30169 44.252 3.20796 44.0162 3.12763C43.7803 3.0473 43.5284 2.95893 43.2845 2.87592C43.0406 2.79291 42.794 2.71257 42.5421 2.64831L41.7917 2.43408L41.0278 2.25467C40.5213 2.12078 40.004 2.03777 39.4894 1.93869C37.404 1.58542 35.2928 1.40628 33.1776 1.40314L31.5695 1.4433C31.0335 1.4433 30.4975 1.51025 29.9615 1.5397C28.9189 1.57987 27.8736 1.73518 26.8016 1.87443C26.2655 1.93066 25.7295 2.02974 25.2095 2.12614L23.6149 2.40998L20.4523 3.11424C21.4654 2.73935 22.4811 2.35107 23.5103 2.00296L25.0729 1.54506C25.6089 1.3951 26.1181 1.2264 26.6515 1.12465C27.7235 0.889001 28.7795 0.634611 29.8677 0.487333C30.4037 0.409677 30.9397 0.289176 31.4918 0.251687L33.1321 0.0963759C35.3352 -0.0668235 37.5489 -0.0237916 39.744 0.22491C40.2934 0.299888 40.8482 0.356121 41.395 0.468588L42.2178 0.618544L43.0352 0.811345C43.3033 0.872934 43.5713 0.945234 43.8393 1.02825C44.1073 1.11126 44.3753 1.17552 44.6433 1.27192C44.9114 1.36832 45.1794 1.44866 45.4474 1.55577C45.7154 1.66288 45.9834 1.75928 46.2863 1.90656L45.3723 3.69264Z"/><path fill="url(#paint3_linear_189_2)" d="M52.7213 3.31776C50.5933 0.990765 46.0209 0.714953 41.1028 2.24665L41.7916 2.40999L42.5421 2.62421C42.794 2.68848 43.0406 2.76614 43.2845 2.85183C43.5284 2.93752 43.7776 3.00714 44.0162 3.10354C44.2547 3.19994 44.4986 3.28027 44.7237 3.37132C44.9489 3.46236 45.2008 3.58018 45.3723 3.66855L44.6326 4.47189C44.6326 4.47189 42.5314 3.43558 38.9614 3.02588C37.4331 3.66431 35.9648 4.43769 34.574 5.33681C31.1193 7.55402 28.6026 10.2345 27.3188 12.7811C28.2403 12.6195 29.1771 12.562 30.1115 12.6097L29.01 13.3702L26.8123 13.9593C26.0484 16.1015 26.2226 18.067 27.5279 19.4943C30.594 22.8469 38.7202 21.9444 45.6779 17.4779C52.6355 13.0113 55.7874 6.67035 52.7213 3.31776ZM52.4533 6.65964C52.4121 7.33737 52.2768 8.00608 52.0513 8.64656C51.8343 9.28082 51.5561 9.89246 51.2204 10.4728C50.5586 11.6164 49.7524 12.6702 48.8217 13.6085C48.7064 13.7236 48.5939 13.8441 48.4759 13.9566L48.1195 14.294C48.0015 14.4091 47.8783 14.5136 47.755 14.6234L47.5727 14.7867L47.3851 14.9447L47.0153 15.2634L46.6347 15.5579C46.5087 15.6624 46.3667 15.7588 46.246 15.8552L45.8521 16.1417C43.7245 17.647 41.3729 18.8082 38.8837 19.5826C37.6432 19.9693 36.3675 20.2321 35.0752 20.3672C34.9144 20.3833 34.7509 20.3913 34.5901 20.4047L34.3462 20.4235C34.2658 20.4235 34.1854 20.4235 34.105 20.4235H33.6172C33.5368 20.4235 33.4564 20.4235 33.3733 20.4235H33.1294L32.6443 20.4047C32.4835 20.4047 32.32 20.3753 32.1592 20.3565L31.9179 20.3324L31.6767 20.2922L31.1997 20.2092C31.1519 20.2007 31.1093 20.1738 31.0812 20.1342C31.0532 20.0946 31.0418 20.0456 31.0496 19.9977C31.0568 19.9532 31.0802 19.913 31.1154 19.8849C31.1505 19.8567 31.1949 19.8425 31.2399 19.8451C32.484 19.8993 33.7302 19.8049 34.9519 19.5639C36.1691 19.3191 37.3648 18.977 38.5272 18.541C40.8465 17.6663 43.0379 16.4846 45.0427 15.0277C46.0378 14.3045 46.9751 13.505 47.8461 12.6365C48.7134 11.7814 49.4878 10.8371 50.1564 9.81942C50.2341 9.69357 50.3172 9.55165 50.3949 9.4365L50.6174 9.04554L50.8238 8.64656L51.0087 8.23953C51.2487 7.69943 51.4215 7.13197 51.5233 6.54985C51.6278 5.97436 51.6278 5.38477 51.5233 4.80929C51.397 4.2291 51.1505 3.68179 50.7996 3.20262C50.7792 3.16605 50.7719 3.12366 50.7788 3.08237C50.7856 3.04109 50.8063 3.00335 50.8375 2.97536C50.8686 2.94736 50.9083 2.93075 50.9501 2.92825C50.992 2.92576 51.0334 2.93752 51.0676 2.96162C51.3164 3.1865 51.5377 3.43997 51.727 3.71675C51.7725 3.78905 51.8234 3.85867 51.8636 3.93097L51.9843 4.15859L52.0459 4.27105L52.0941 4.38888L52.1933 4.6272C52.4156 5.28047 52.5066 5.97114 52.4613 6.65964H52.4533Z"/><path fill="url(#paint4_linear_189_2)" d="M28.9242 15.3866C28.431 15.3303 27.8521 15.3009 27.3161 15.2928C26.7801 15.2848 26.2226 15.2928 25.6758 15.3196C24.5766 15.3741 23.4828 15.5093 22.4034 15.724C21.3207 15.9527 20.2633 16.2873 19.2462 16.7228C18.2252 17.1867 17.2751 17.7925 16.424 18.5222C17.1746 17.6569 18.0435 16.9015 19.0049 16.2783C19.9943 15.6695 21.041 15.1592 22.13 14.7546C23.2268 14.3611 24.351 14.0488 25.4936 13.82C26.0636 13.7022 26.6398 13.6058 27.2223 13.5308C27.8119 13.4532 28.3748 13.397 29.01 13.3702L28.9242 15.3866Z"/><path fill="url(#paint5_linear_189_2)" d="M11.0208 33.2527C10.6666 37.6277 11.1896 42.0293 12.5592 46.1998C13.9167 50.2815 16.1505 54.0175 19.1041 57.1466C22.0228 60.2957 25.6115 62.7914 29.4415 64.8693C33.2714 66.9473 37.4176 68.5379 41.6335 70C37.1666 69.4364 32.8068 68.2202 28.6937 66.3903L27.1526 65.6754C26.6327 65.4477 26.1556 65.1398 25.6517 64.872C25.1479 64.6042 24.6494 64.3365 24.175 64.0205L22.7384 63.0913C22.2453 62.7967 21.8191 62.4138 21.3555 62.0764C20.8918 61.739 20.4415 61.3882 20.0154 61.0053L18.7262 59.8646L17.5121 58.6408C15.9501 56.9465 14.5894 55.0775 13.457 53.071C12.3431 51.06 11.4945 48.9133 10.9323 46.6845C9.83079 42.2447 9.75843 37.5506 11.0208 33.2527Z"/><path fill="url(#paint6_linear_189_2)" d="M25.306 43.6238L25.7509 41.2138V41.1415L26.6139 36.2385L26.8364 35.0067L27.0562 33.7749L27.9192 28.8719V28.7996L27.2304 26.3896H43.3113L42.8664 28.8772H34.7268C34.4495 28.8769 34.1816 28.9778 33.9736 29.1611C33.7581 29.3363 33.6134 29.5837 33.5663 29.8573L33.3679 30.9124L32.9498 33.2393H39.5832L39.1303 35.7163H32.5049L32.4084 36.2813L32.2342 37.2667L32.0627 38.2522L31.717 40.223L31.5454 41.2593L31.1005 43.6693L25.306 43.6238Z"/><path fill="url(#paint7_linear_189_2)" d="M42.9843 43.6479L43.4292 41.2379L45.0802 31.9754L44.3914 29.5654H51.3598L49.4622 40.2069C49.4326 40.3283 49.4317 40.4549 49.4596 40.5767C49.4875 40.6985 49.5435 40.8121 49.6231 40.9085C49.7026 41.0025 49.8027 41.077 49.9156 41.1262C50.0285 41.1754 50.1513 41.1981 50.2743 41.1924H56.562L56.1197 43.68H47.7443L42.9843 43.6479Z"/><path fill="url(#paint8_linear_189_2)" d="M72.324 43.672L73.932 41.262L73.8356 41.187H64.6319C64.5084 41.1931 64.3851 41.1707 64.2717 41.1215C64.1583 41.0722 64.0578 40.9975 63.978 40.9032C63.8998 40.806 63.8449 40.6923 63.8174 40.5707C63.79 40.4491 63.7908 40.3228 63.8198 40.2016L64.2379 37.813H70.8713L71.3135 35.3253H58.8401L57.358 43.6265L72.324 43.672Z"/><path fill="url(#paint9_linear_189_2)" d="M74.8406 29.5333H58.7409L59.4297 32.0209H74.3957L74.8406 29.5333Z"/><path fill="url(#paint10_linear_189_2)" d="M155.998 43.672L157.606 41.262L157.507 41.187H148.306C148.183 41.1931 148.06 41.1707 147.946 41.1215C147.833 41.0722 147.732 40.9975 147.652 40.9032C147.574 40.8059 147.519 40.6922 147.492 40.5708C147.464 40.4493 147.464 40.3231 147.492 40.2016L147.912 37.813H154.543L154.988 35.3253H142.514L141.032 43.6265L155.998 43.672Z"/><path fill="url(#paint11_linear_189_2)" d="M158.512 29.5333H142.413L143.104 32.0209H158.07L158.512 29.5333Z"/><path fill="url(#paint12_linear_189_2)" d="M87.1666 43.672L84.1836 39.3875L79.0055 43.672H74.8406L82.6559 37.1944L77.9469 30.4196L77.3546 29.5815H84.6526L87.2926 33.3518L91.8274 29.5815H95.995L88.8203 35.5181L92.7333 41.0852L93.2693 41.8002L94.5504 43.6747L87.1666 43.672Z"/><path fill="url(#paint13_linear_189_2)" d="M96.7535 43.6479L97.1984 41.2379L98.8494 31.9754L98.1579 29.5654H105.126L103.226 40.2069C103.198 40.3284 103.198 40.4546 103.226 40.5761C103.254 40.6976 103.309 40.8112 103.387 40.9085C103.467 41.0029 103.567 41.0776 103.681 41.1268C103.794 41.1761 103.917 41.1985 104.041 41.1924H110.329L109.884 43.68H101.516L96.7535 43.6479Z"/><path fill="url(#paint14_linear_189_2)" d="M111.133 43.672L113.204 31.9968L112.513 29.5868H119.481L117.632 40.0088L116.965 43.6773L111.133 43.672Z"/><path fill="url(#paint15_linear_189_2)" d="M124.627 36.0108L123.263 43.6479H120.851L121.296 41.2379L122.727 33.1804L120.315 29.5601H128.058L135.798 41.0879L136.441 37.5666L137.87 29.5842H140.261L138.116 41.5806L137.747 43.6747H129.719L124.627 36.0108Z"/><path fill="url(#paint16_linear_189_2)" d="M178.812 39.0689C178.592 40.3483 177.908 41.5018 176.89 42.309C175.902 43.1496 174.645 43.6101 173.347 43.6077H162.232L163.841 34.5541H167.196L166.183 40.2551H173.955C174.816 40.2551 175.317 39.8535 175.459 39.0555L176.394 33.7963C176.536 32.9983 176.178 32.5994 175.322 32.5994H164.189L164.784 29.2468H175.885C177.191 29.2468 178.219 29.6788 178.967 30.5428C179.716 31.4068 179.976 32.4896 179.747 33.791L178.812 39.0689Z"/><path fill="url(#paint17_linear_189_2)" d="M182.757 43.6158H179.401L181.953 29.2548H185.308L182.757 43.6158Z"/><path fill="url(#paint18_linear_189_2)" d="M202.113 39.1867C201.914 40.3661 201.34 41.4498 200.475 42.2769C200.054 42.7009 199.553 43.0375 199.001 43.2672C198.449 43.497 197.857 43.6155 197.259 43.6158H184.855L185.45 40.2632H197.868C198.332 40.2632 198.629 39.9061 198.757 39.1921C198.886 38.478 198.716 38.1209 198.248 38.1209H189.219C188.025 38.1209 187.117 37.6747 186.493 36.7821C185.894 35.9448 185.703 34.921 185.919 33.7106C186.123 32.5059 186.717 31.4014 187.611 30.5669C188.026 30.15 188.52 29.8195 189.063 29.5943C189.607 29.3691 190.19 29.2537 190.779 29.2548H203.196L202.62 32.6074H190.168C189.701 32.6074 189.404 32.9689 189.272 33.6972C189.141 34.4256 189.318 34.7684 189.784 34.7684H198.835C200.031 34.7684 200.942 35.2147 201.569 36.1073C202.146 36.9516 202.327 37.9781 202.113 39.1867Z"/><path fill="url(#paint19_linear_189_2)" d="M218.551 43.6158H207.423C206.118 43.6158 205.085 43.1829 204.324 42.317C203.563 41.4512 203.295 40.3685 203.52 39.0689L204.456 33.799C204.68 32.5124 205.374 31.3548 206.404 30.5508C207.4 29.7121 208.661 29.253 209.963 29.2548H221.113L220.518 32.6074H209.376C208.483 32.6074 207.965 33.0064 207.822 33.8044L206.886 39.0635C206.744 39.8669 207.122 40.2632 208.018 40.2632H219.145L218.551 43.6158Z"/><path fill="url(#paint20_linear_189_2)" d="M237.907 39.1867C237.707 40.3664 237.132 41.4502 236.266 42.2769C235.847 42.6993 235.348 43.0349 234.798 43.2647C234.249 43.4944 233.659 43.6137 233.064 43.6158H220.649L221.244 40.2632H233.661C234.124 40.2632 234.421 39.9061 234.551 39.1921C234.681 38.478 234.512 38.1209 234.042 38.1209H225.01C223.818 38.1209 222.909 37.6746 222.284 36.782C221.685 35.9448 221.494 34.921 221.71 33.7106C221.921 32.509 222.519 31.4093 223.415 30.5803C223.83 30.1634 224.324 29.8328 224.868 29.6076C225.411 29.3824 225.994 29.2671 226.583 29.2682H239L238.405 32.6208H225.961C225.495 32.6208 225.197 32.9823 225.066 33.7106C224.935 34.439 225.111 34.7817 225.578 34.7817H234.629C235.824 34.7817 236.735 35.228 237.362 36.1206C237.94 36.9561 238.121 37.9781 237.907 39.1867Z"/></g><defs><linearGradient gradientUnits="userSpaceOnUse" y2="47.6484" x2="13.4865" y1="-3.76499" x1="34.7241" id="paint0_linear_189_2"><stop stop-color="#330203"/><stop stop-color="#BA0607" offset="1"/></linearGradient><linearGradient gradientUnits="userSpaceOnUse" y2="16.7254" x2="28.2488" y1="16.7254" x1="0" id="paint1_linear_189_2"><stop stop-color="#666666"/><stop offset="1"/></linearGradient><linearGradient gradientUnits="userSpaceOnUse" y2="48.0902" x2="14.5559" y1="-3.32316" x1="35.7908" id="paint2_linear_189_2"><stop stop-color="#330203"/><stop stop-color="#BA0607" offset="1"/></linearGradient><linearGradient gradientUnits="userSpaceOnUse" y2="51.7695" x2="23.47" y1="0.358809" x1="44.705" id="paint3_linear_189_2"><stop stop-color="#330203"/><stop stop-color="#BA0607" offset="1"/></linearGradient><linearGradient gradientUnits="userSpaceOnUse" y2="46.4219" x2="10.5222" y1="-4.9914" x1="31.7571" id="paint4_linear_189_2"><stop stop-color="#330203"/><stop stop-color="#BA0607" offset="1"/></linearGradient><linearGradient gradientUnits="userSpaceOnUse" y2="51.625" x2="41.6335" y1="51.625" x1="10.0908" id="paint5_linear_189_2"><stop stop-color="#666666"/><stop offset="1"/></linearGradient><linearGradient gradientUnits="userSpaceOnUse" y2="18.8849" x2="55.021" y1="-11.5975" x1="103.599" id="paint6_linear_189_2"><stop stop-color="#330203"/><stop stop-color="#BA0607" offset="1"/></linearGradient><linearGradient gradientUnits="userSpaceOnUse" y2="29.5103" x2="61.6865" y1="-0.972052" x1="110.264" id="paint7_linear_189_2"><stop stop-color="#330203"/><stop stop-color="#BA0607" offset="1"/></linearGradient><linearGradient gradientUnits="userSpaceOnUse" y2="38.4702" x2="67.3095" y1="7.98782" x1="115.887" id="paint8_linear_189_2"><stop stop-color="#330203"/><stop stop-color="#BA0607" offset="1"/></linearGradient><linearGradient gradientUnits="userSpaceOnUse" y2="32.6514" x2="63.6591" y1="2.17166" x1="112.237" id="paint9_linear_189_2"><stop stop-color="#330203"/><stop stop-color="#BA0607" offset="1"/></linearGradient><linearGradient gradientUnits="userSpaceOnUse" y2="76.0931" x2="90.919" y1="45.6107" x1="139.497" id="paint10_linear_189_2"><stop stop-color="#330203"/><stop stop-color="#BA0607" offset="1"/></linearGradient><linearGradient gradientUnits="userSpaceOnUse" y2="70.277" x2="87.2686" y1="39.7946" x1="135.846" id="paint11_linear_189_2"><stop stop-color="#330203"/><stop stop-color="#BA0607" offset="1"/></linearGradient><linearGradient gradientUnits="userSpaceOnUse" y2="45.5663" x2="71.7639" y1="15.0839" x1="120.339" id="paint12_linear_189_2"><stop stop-color="#330203"/><stop stop-color="#BA0607" offset="1"/></linearGradient><linearGradient gradientUnits="userSpaceOnUse" y2="53.6881" x2="76.8589" y1="23.2084" x1="125.437" id="paint13_linear_189_2"><stop stop-color="#330203"/><stop stop-color="#BA0607" offset="1"/></linearGradient><linearGradient gradientUnits="userSpaceOnUse" y2="58.5161" x2="79.8875" y1="28.0337" x1="128.465" id="paint14_linear_189_2"><stop stop-color="#330203"/><stop stop-color="#BA0607" offset="1"/></linearGradient><linearGradient gradientUnits="userSpaceOnUse" y2="64.9241" x2="83.9104" y1="34.4417" x1="132.488" id="paint15_linear_189_2"><stop stop-color="#330203"/><stop stop-color="#BA0607" offset="1"/></linearGradient><linearGradient gradientUnits="userSpaceOnUse" y2="20.5938" x2="211.832" y1="33.3679" x1="177.751" id="paint16_linear_189_2"><stop stop-color="#330203"/><stop stop-color="#BA0607" offset="1"/></linearGradient><linearGradient gradientUnits="userSpaceOnUse" y2="24.7926" x2="213.405" y1="37.5693" x1="179.324" id="paint17_linear_189_2"><stop stop-color="#330203"/><stop stop-color="#BA0607" offset="1"/></linearGradient><linearGradient gradientUnits="userSpaceOnUse" y2="28.6218" x2="214.842" y1="41.3986" x1="180.76" id="paint18_linear_189_2"><stop stop-color="#330203"/><stop stop-color="#BA0607" offset="1"/></linearGradient><linearGradient gradientUnits="userSpaceOnUse" y2="35.0994" x2="217.267" y1="47.8734" x1="183.189" id="paint19_linear_189_2"><stop stop-color="#330203"/><stop stop-color="#BA0607" offset="1"/></linearGradient><linearGradient gradientUnits="userSpaceOnUse" y2="40.3692" x2="219.245" y1="53.146" x1="185.164" id="paint20_linear_189_2"><stop stop-color="#330203"/><stop stop-color="#BA0607" offset="1"/></linearGradient><clipPath id="clip0_189_2"><rect fill="white" height="70" width="239"/></clipPath></defs></svg>